{
  "accessors": [
    {
      "bufferView": 2,
      "componentType": 5126,
      "count": 3314,
      "max": [
        471.620361328125,
        316.2373046875,
        142.63519287109375
      ],
      "min": [
        -245.21661376953125,
        -316.2373046875,
        -0.00019099999917671084
      ],
      "type": "VEC3"
    },
    {
      "bufferView": 2,
      "byteOffset": 39768,
      "componentType": 5126,
      "count": 3314,
      "max": [
        0.9914441108703613,
        0.9914441108703613,
        1.0
      ],
      "min": [
        -0.9914400577545166,
        -0.9914441108703613,
        -0.9827384352684021
      ],
      "type": "VEC3"
    },
    {
      "bufferView": 3,
      "componentType": 5126,
      "count": 3314,
      "max": [
        1.0,
        0.9978030323982239,
        1.0,
        1.0
      ],
      "min": [
        -0.9978092312812805,
        -0.9977665543556213,
        -1.0,
        1.0
      ],
      "type": "VEC4"
    },
    {
      "bufferView": 1,
      "componentType": 5126,
      "count": 3314,
      "max": [
        0.9815700054168701,
        0.9900000095367432
      ],
      "min": [
        0.009999999776482582,
        0.009999990463256836
      ],
      "type": "VEC2"
    },
    {
      "bufferView": 0,
      "componentType": 5125,
      "count": 13950,
      "type": "SCALAR"
    },
    {
      "bufferView": 2,
      "byteOffset": 79536,
      "componentType": 5126,
      "count": 1440,
      "max": [
        353.0093994140625,
        217.21226501464844,
        140.8653564453125
      ],
      "min": [
        -143.79661560058594,
        -217.1746826171875,
        63.86365509033203
      ],
      "type": "VEC3"
    },
    {
      "bufferView": 2,
      "byteOffset": 96816,
      "componentType": 5126,
      "count": 1440,
      "max": [
        1.0,
        1.0,
        1.0
      ],
      "min": [
        -1.0,
        -1.0,
        -1.0
      ],
      "type": "VEC3"
    },
    {
      "bufferView": 1,
      "byteOffset": 26512,
      "componentType": 5126,
      "count": 1440,
      "max": [
        1.0,
        1.0
      ],
      "min": [
        0.0,
        0.0
      ],
      "type": "VEC2"
    },
    {
      "bufferView": 0,
      "byteOffset": 55800,
      "componentType": 5125,
      "count": 2160,
      "type": "SCALAR"
    }
  ],
  "asset": {
    "extras": {
      "author": "Idmental (https://sketchfab.com/idmental.id)",
      "license": "CC-BY-4.0 (http://creativecommons.org/licenses/by/4.0/)",
      "source": "https://sketchfab.com/3d-models/parking-garage-free-download-5310b7d77b70427d936ec4253fff679c",
      "title": "Parking garage [FREE DOWNLOAD]"
    },
    "generator": "Sketchfab-12.68.0",
    "version": "2.0"
  },
  "bufferViews": [
    {
      "buffer": 0,
      "byteLength": 64440,
      "name": "floatBufferViews",
      "target": 34963
    },
    {
      "buffer": 0,
      "byteLength": 38032,
      "byteOffset": 64440,
      "byteStride": 8,
      "name": "floatBufferViews",
      "target": 34962
    },
    {
      "buffer": 0,
      "byteLength": 114096,
      "byteOffset": 102472,
      "byteStride": 12,
      "name": "floatBufferViews",
      "target": 34962
    },
    {
      "buffer": 0,
      "byteLength": 53024,
      "byteOffset": 216568,
      "byteStride": 16,
      "name": "floatBufferViews",
      "target": 34962
    }
  ],
  "buffers": [
    {
      "byteLength": 269592,
      "uri": "scene.bin"
    }
  ],
  "extensionsUsed": [
    "KHR_materials_clearcoat"
  ],
  "images": [
    {
      "uri": "textures/Mat.1_baseColor.png"
    },
    {
      "uri": "textures/Mat.1_metallicRoughness.png"
    },
    {
      "uri": "textures/Mat.1_normal.png"
    }
  ],
  "materials": [
    {
      "doubleSided": true,
      "name": "Mat.1",
      "normalTexture": {
        "index": 2,
        "scale": 0.5185247675853808
      },
      "occlusionTexture": {
        "index": 1
      },
      "pbrMetallicRoughness": {
        "baseColorTexture": {
          "index": 0
        },
        "metallicFactor": 0.810373079425302,
        "metallicRoughnessTexture": {
          "index": 1
        }
      }
    },
    {
      "doubleSided": true,
      "emissiveFactor": [
        1.0,
        1.0,
        1.0
      ],
      "extensions": {
        "KHR_materials_clearcoat": {
          "clearcoatFactor": 1.0,
          "clearcoatRoughnessFactor": 0.04
        }
      },
      "name": "glass",
      "pbrMetallicRoughness": {
        "metallicFactor": 0.4394825164620689,
        "roughnessFactor": 0.20178726690136128
      }
    }
  ],
  "meshes": [
    {
      "name": "Object_0",
      "primitives": [
        {
          "attributes": {
            "NORMAL": 1,
            "POSITION": 0,
            "TANGENT": 2,
            "TEXCOORD_0": 3
          },
          "indices": 4,
          "material": 0,
          "mode": 4
        }
      ]
    },
    {
      "name": "Object_1",
      "primitives": [
        {
          "attributes": {
            "NORMAL": 6,
            "POSITION": 5,
            "TEXCOORD_0": 7
          },
          "indices": 8,
          "material": 1,
          "mode": 4
        }
      ]
    }
  ],
  "nodes": [
    {
      "children": [
        1
      ],
      "matrix": [
        0.027223747223615646,
        0.0,
        0.0,
        0.0,
        0.0,
        6.044886196846654e-18,
        -0.027223747223615646,
        0.0,
        0.0,
        0.027223747223615646,
        6.044886196846654e-18,
        0.0,
        0.0,
        0.0,
        0.0,
        1.0
      ],
      "name": "Sketchfab_model"
    },
    {
      "children": [
        2,
        3
      ],
      "name": "GARAGE FLOOR.obj.cleaner.materialmerger.gles"
    },
    {
      "mesh": 0,
      "name": "Object_2"
    },
    {
      "mesh": 1,
      "name": "Object_3"
    }
  ],
  "samplers": [
    {
      "magFilter": 9729,
      "minFilter": 9987,
      "wrapS": 10497,
      "wrapT": 10497
    }
  ],
  "scene": 0,
  "scenes": [
    {
      "name": "Sketchfab_Scene",
      "nodes": [
        0
      ]
    }
  ],
  "textures": [
    {
      "sampler": 0,
      "source": 0
    },
    {
      "sampler": 0,
      "source": 1
    },
    {
      "sampler": 0,
      "source": 2
    }
  ]
}
